<svg xmlns="http://www.w3.org/2000/svg" version="1.0" width="512.000000pt" height="512.000000pt" viewBox="0 0 512.000000 512.000000" preserveAspectRatio="xMidYMid meet">

<g transform="translate(0.000000,512.000000) scale(0.100000,-0.100000)" fill="#d7eddb" stroke="none">
<path d="M3748 3078 c-753 -819 -1368 -1493 -1368 -1498 0 -8 1824 -1016 1849 -1022 10 -2 113 454 451 2002 241 1103 437 2006 437 2007 -1 1 -617 -669 -1369 -1489z" fill="#d7eddb"/>
<path d="M2373 3552 c-1300 -549 -2363 -999 -2363 -1002 0 -5 1589 -605 1602 -605 5 0 3009 2488 3117 2582 14 12 22 22 16 22 -5 -1 -1073 -449 -2372 -997z" fill="#d7eddb"/>
<path d="M3025 2889 l-1300 -1080 4 -192 c2 -106 9 -338 15 -517 l12 -325 121 245 c66 135 159 324 206 420 l86 175 1061 1155 c584 635 1071 1165 1082 1178 12 12 20 22 17 22 -2 -1 -589 -487 -1304 -1081z" fill="#d7eddb"/>
<path d="M2128 1143 c-173 -355 -201 -416 -185 -406 54 32 646 518 640 524 -10 10 -300 169 -308 169 -4 0 -70 -129 -147 -287z" fill="#d7eddb"/>
</g>
</svg>