<svg xmlns="http://www.w3.org/2000/svg" version="1.0" width="694.000000pt" height="713.000000pt" viewBox="0 0 694.000000 713.000000" preserveAspectRatio="xMidYMid meet">

<g transform="translate(0.000000,713.000000) scale(0.100000,-0.100000)" fill="#d7eddb" stroke="none">
<path d="M1910 6141 c-14 -28 -12 -57 6 -75 14 -14 167 -16 1533 -16 1458 0 1519 1 1534 18 21 23 22 56 1 76 -14 14 -167 16 -1539 16 -1497 0 -1524 0 -1535 -19z" fill="#d7eddb"/>
<path d="M2179 5996 c-2 -2 -3 -83 -1 -180 l3 -176 1269 0 1270 0 0 180 0 180 -1268 0 c-698 0 -1271 -2 -1273 -4z" fill="#d7eddb"/>
<path d="M2340 5536 c0 -37 4 -56 14 -59 12 -5 12 -13 -1 -54 -24 -77 -13 -275 21 -381 84 -259 216 -471 628 -1009 195 -254 318 -435 318 -468 0 -45 -64 -137 -455 -655 -188 -249 -308 -429 -383 -578 -107 -211 -142 -330 -142 -482 0 -104 11 -162 39 -221 l19 -38 -29 -6 c-28 -6 -29 -9 -29 -61 l0 -54 1110 0 1110 0 0 55 c0 51 -2 55 -23 55 -13 0 -26 2 -29 5 -3 3 6 34 20 68 37 92 42 240 12 362 -63 257 -221 525 -598 1015 -265 345 -362 488 -362 534 0 46 98 186 483 689 100 131 273 389 330 493 143 262 196 497 152 667 -18 71 -18 67 0 67 12 0 15 13 15 55 l0 55 -1110 0 -1110 0 0 -54z m2138 -68 c21 -26 35 -106 35 -193 -1 -196 -88 -409 -292 -718 -83 -126 -267 -376 -394 -536 -161 -204 -297 -414 -297 -460 0 -43 83 -172 277 -428 380 -501 481 -648 577 -841 111 -220 151 -401 122 -541 -9 -41 -26 -95 -38 -120 -22 -44 -25 -46 -65 -46 -48 0 -45 -3 -258 204 -427 414 -648 626 -656 629 -5 2 -9 256 -9 598 l0 594 52 87 c29 49 162 234 296 412 261 346 366 491 359 497 -2 3 -139 -50 -303 -116 -579 -234 -819 -332 -831 -339 -7 -4 35 -67 117 -176 71 -93 156 -215 189 -270 l61 -100 0 -586 0 -586 -217 -210 c-120 -115 -317 -305 -437 -421 -135 -129 -230 -213 -245 -216 -50 -11 -65 -2 -94 56 -128 254 14 634 453 1213 415 546 477 635 487 699 3 25 -7 49 -49 119 -52 87 -82 129 -399 547 -309 407 -443 638 -511 875 -26 93 -31 254 -10 320 8 22 15 46 17 53 4 9 218 12 1028 12 808 0 1027 -3 1035 -12z" fill="#d7eddb"/>
<path d="M2180 1240 l0 -180 1270 0 1270 0 0 180 0 180 -1270 0 -1270 0 0 -180z" fill="#d7eddb"/>
<path d="M1912 998 c-17 -17 -15 -64 4 -82 14 -14 167 -16 1534 -16 1367 0 1520 2 1534 16 20 20 20 58 0 78 -14 14 -167 16 -1538 16 -1170 0 -1525 -3 -1534 -12z" fill="#d7eddb"/>
</g>
</svg>