<?xml version="1.0" standalone="no"?>
<!DOCTYPE svg PUBLIC "-//W3C//DTD SVG 20010904//EN"
 "http://www.w3.org/TR/2001/REC-SVG-20010904/DTD/svg10.dtd">
<svg version="1.0" xmlns="http://www.w3.org/2000/svg"
 width="512.000000pt" height="512.000000pt" viewBox="0 0 512.000000 512.000000"
 preserveAspectRatio="xMidYMid meet">

<g transform="translate(0.000000,512.000000) scale(0.100000,-0.100000)"
fill="#000000" stroke="none">
<path d="M1954 4675 c-381 -56 -728 -231 -1004 -507 -250 -249 -413 -554 -490
-914 -31 -144 -38 -429 -16 -584 30 -205 82 -373 168 -545 100 -199 210 -347
375 -505 132 -127 259 -216 428 -300 287 -143 550 -200 870 -187 374 16 714
141 1019 375 l58 45 562 -562 561 -561 103 102 102 103 -561 561 -562 562 45
58 c122 159 228 356 287 533 119 357 119 765 1 1124 -42 128 -157 353 -237
467 -104 146 -312 350 -458 446 -239 159 -476 251 -748 289 -125 18 -379 18
-503 0z m526 -300 c578 -112 1037 -547 1174 -1113 39 -159 51 -318 37 -471
-20 -218 -67 -379 -166 -568 -73 -141 -152 -248 -266 -362 -214 -215 -500
-365 -794 -416 -368 -63 -752 15 -1060 215 -348 227 -579 572 -661 985 -27
137 -25 415 5 555 43 204 114 372 228 545 79 118 249 292 369 378 198 140 446
236 686 267 102 12 346 4 448 -15z"/>
</g>
</svg>
